<?xml version="1.0" encoding="UTF-8" standalone="no"?>
<svg
   xmlns:dc="http://purl.org/dc/elements/1.1/"
   xmlns:cc="http://creativecommons.org/ns#"
   xmlns:rdf="http://www.w3.org/1999/02/22-rdf-syntax-ns#"
   xmlns:svg="http://www.w3.org/2000/svg"
   xmlns="http://www.w3.org/2000/svg"
   xmlns:sodipodi="http://sodipodi.sourceforge.net/DTD/sodipodi-0.dtd"
   xmlns:inkscape="http://www.inkscape.org/namespaces/inkscape"
   id="svg137"
   version="1.2"
   viewBox="0 0 292.49998 83.250001"
   height="111"
   width="390"
   sodipodi:docname="logo.svg"
   inkscape:version="1.0.1 (3bc2e813f5, 2020-09-07)">
  <sodipodi:namedview
     pagecolor="#ffffff"
     bordercolor="#666666"
     borderopacity="1"
     objecttolerance="10"
     gridtolerance="10"
     guidetolerance="10"
     inkscape:pageopacity="0"
     inkscape:pageshadow="2"
     inkscape:window-width="1920"
     inkscape:window-height="1017"
     id="namedview73"
     showgrid="false"
     units="px"
     inkscape:zoom="1.2650663"
     inkscape:cx="46.671642"
     inkscape:cy="167.23598"
     inkscape:window-x="1912"
     inkscape:window-y="-8"
     inkscape:window-maximized="1"
     inkscape:current-layer="svg137"
     inkscape:document-rotation="0"
     inkscape:snap-text-baseline="false" />
  <metadata
     id="metadata141">
    <rdf:RDF>
      <cc:Work
         rdf:about="">
        <dc:format>image/svg+xml</dc:format>
        <dc:type
           rdf:resource="http://purl.org/dc/dcmitype/StillImage" />
        <dc:title />
      </cc:Work>
    </rdf:RDF>
  </metadata>
  <defs
     id="defs8">
    <clipPath
       id="clip1">
      <path
         id="path2"
         d="m 571,52 h 24.28125 V 77 H 571 Z m 0,0"
         inkscape:connector-curvature="0" />
    </clipPath>
    <clipPath
       id="clip2">
      <path
         id="path5"
         d="m 503,143 h 13 v 26.69922 h -13 z m 0,0"
         inkscape:connector-curvature="0" />
    </clipPath>
  </defs>
  <g
     id="surface113"
     transform="matrix(0.49225331,0,0,0.49225331,0,-0.28576577)">
    <path
       id="path10"
       d="m 172.75,-0.00390625 c 0,0 -7.99609,6.67968725 -16.97266,6.73437525 -8.98047,0.050781 -16.69531,-6.73437525 -16.69531,-6.73437525 V 158.70312 c 0,0 6.59375,6.59766 16.83203,6.73438 10.24219,0.13672 16.83594,-6.73438 16.83594,-6.73438 V -0.00390625"
       style="fill:#ffffff;fill-opacity:1;fill-rule:nonzero;stroke:none"
       inkscape:connector-curvature="0" />
    <path
       id="path12"
       d="m 139.07031,25.105469 c 0,0 -10.21094,2.046875 -18.125,-2.195313 C 113.03125,18.667969 109.5,9.019531 109.5,9.019531 L 33.664062,148.43359 c 0,0 2.640626,8.94922 11.574219,13.96485 8.925781,5.01172 18,2.1289 18,2.1289 L 139.07031,25.105469"
       style="fill:#ffffff;fill-opacity:1;fill-rule:nonzero;stroke:none"
       inkscape:connector-curvature="0" />
    <path
       id="path14"
       d="m 16.753906,43.339844 c 8.207032,-0.04297 15.867188,-6.011719 16.1875,-6.265625 l 0.722656,-0.570313 V -0.00390625 c 0,0 -7.992187,6.67968725 -16.96875,6.73437525 C 7.714844,6.78125 0,-0.00390625 0,-0.00390625 V 36.386719 l 0.855469,0.710937 c 0.074219,0.05859 7.769531,6.242188 15.898437,6.242188"
       style="fill:#ffffff;fill-opacity:1;fill-rule:nonzero;stroke:none"
       inkscape:connector-curvature="0" />
    <path
       id="path16"
       d="m 16.75,47.550781 c -7.175781,0 -13.671875,-3.75 -16.75,-5.847656 V 158.70312 c 0,0 6.59375,6.59766 16.832031,6.73438 10.242188,0.13672 16.832031,-6.73438 16.832031,-6.73438 V 41.746094 c -3.140624,2.089844 -9.671874,5.765625 -16.804687,5.804687 H 16.75"
       style="fill:#ffffff;fill-opacity:1;fill-rule:nonzero;stroke:none"
       inkscape:connector-curvature="0" />
    <path
       id="path18"
       d="m 235.27344,34.617188 h -4.83985 c 0.23828,-3.160157 0.35547,-7.882813 0.35547,-14.167969 0,-2.886719 0.0508,-6.554688 0.15235,-11.007813 h -0.25391 c -0.59375,1.699219 -3.77344,6.039063 -9.52734,13.019532 -5.3711,6.507812 -8.05079,10.558593 -8.05079,12.15625 h -3.57031 c 0.28906,-4.5 0.4375,-9.75 0.4375,-15.746094 0,-6.097656 -0.14844,-11.910156 -0.4375,-17.429688 h 4.79297 c -0.24219,4.585938 -0.35937,9.734375 -0.35937,15.441406 0,2.921876 -0.0781,6.167969 -0.22657,9.734376 h 0.27735 c 0.69922,-1.699219 3.94922,-6.023438 9.75781,-12.96875 5.26953,-6.300782 7.90234,-10.371094 7.90234,-12.207032 h 3.58985 c -0.25391,5.519532 -0.38282,11.332032 -0.38282,17.429688 0,5.996094 0.12891,11.246094 0.38282,15.746094"
       style="fill:#ffffff;fill-opacity:1;fill-rule:nonzero;stroke:none"
       inkscape:connector-curvature="0" />
    <path
       id="path20"
       d="m 263.8125,34.617188 h -4.46094 c 0.22266,-3.246094 0.33985,-6.980469 0.35938,-11.210938 h -12.20703 c 0,3.804688 0.1289,7.542969 0.38281,11.210938 h -4.46094 c 0.25781,-3.398438 0.38672,-7.277344 0.38672,-11.644532 0,-4.910156 -0.30469,-9.027344 -0.91797,-12.359375 l 4.94141,-0.6875 c -0.0859,1.222657 -0.19532,4.628907 -0.33203,10.21875 h 12.15234 c -0.10156,-3.804687 -0.37891,-6.980469 -0.83984,-9.53125 l 4.94531,-0.6875 c -0.22266,3.550781 -0.33203,7.902344 -0.33203,13.046875 0,4.078125 0.1289,7.960938 0.38281,11.644532"
       style="fill:#ffffff;fill-opacity:1;fill-rule:nonzero;stroke:none"
       inkscape:connector-curvature="0" />
    <path
       id="path22"
       d="m 289.08594,30.71875 -0.25391,3.414062 c -1.375,0.78125 -3.22266,1.171876 -5.52734,1.171876 -4.40235,0 -7.76563,-1.214844 -10.08985,-3.644532 -2.32812,-2.429687 -3.49218,-5.359375 -3.49218,-8.789062 0,-3.636719 1.22265,-6.761719 3.66796,-9.378906 2.44532,-2.613282 5.67969,-3.921876 9.71094,-3.921876 2.01953,0 3.66797,0.203126 4.9375,0.613282 l -0.68359,4 c -1.78516,-0.664063 -3.59375,-0.996094 -5.42969,-0.996094 -2.41016,0 -4.32812,0.839844 -5.75781,2.523438 -1.42578,1.683593 -2.14063,3.785156 -2.14063,6.320312 0,2.75 0.85157,5.042969 2.55078,6.878906 1.69532,1.832032 4.10157,2.75 7.20704,2.75 1.27734,0 3.04296,-0.3125 5.30078,-0.941406"
       style="fill:#ffffff;fill-opacity:1;fill-rule:nonzero;stroke:none"
       inkscape:connector-curvature="0" />
    <path
       id="path24"
       d="m 312.62891,10.410156 -0.14844,3.796875 c -2.76953,-0.269531 -5.48828,-0.40625 -8.15625,-0.40625 -0.0664,2.359375 -0.10156,5.417969 -0.10156,9.171875 0,4.078125 0.1289,7.960938 0.38281,11.644532 h -4.63672 c 0.23828,-3.398438 0.35547,-7.277344 0.35547,-11.644532 0,-3.652344 -0.0703,-6.707031 -0.20313,-9.171875 -2.65234,0 -5.39453,0.136719 -8.23047,0.40625 l 0.15235,-3.796875 h 20.58594"
       style="fill:#ffffff;fill-opacity:1;fill-rule:nonzero;stroke:none"
       inkscape:connector-curvature="0" />
    <path
       id="path26"
       d="m 337.95703,34.617188 h -4.55859 c 0.2539,-2.90625 0.3789,-6.785157 0.3789,-11.644532 0,-1.375 0.0859,-3.441406 0.25391,-6.191406 h -0.25391 c -0.35547,1.171875 -2.67578,4.253906 -6.95312,9.25 -4.0625,4.773438 -6.08985,7.632812 -6.08985,8.585938 h -3.62109 c 0.24219,-3.398438 0.35938,-7.277344 0.35938,-11.644532 0,-4.910156 -0.30079,-9.027344 -0.89063,-12.359375 l 5.04297,-0.6875 c -0.22266,3.144531 -0.33203,7.144531 -0.33203,12.003907 0,1.714843 -0.0508,3.886718 -0.15235,6.519531 h 0.25391 c 0.39063,-1.066407 2.70313,-4.140625 6.92969,-9.222657 3.97656,-4.773437 5.96484,-7.640624 5.96484,-8.613281 l 3.61719,-0.6875 c -0.20313,3.550781 -0.30469,7.902344 -0.30469,13.046875 0,4.078125 0.11719,7.960938 0.35547,11.644532"
       style="fill:#ffffff;fill-opacity:1;fill-rule:nonzero;stroke:none"
       inkscape:connector-curvature="0" />
    <path
       id="path28"
       d="m 363.20703,10.410156 -0.15234,3.796875 c -2.76563,-0.269531 -5.48438,-0.40625 -8.15235,-0.40625 -0.0664,2.359375 -0.10156,5.417969 -0.10156,9.171875 0,4.078125 0.12891,7.960938 0.38281,11.644532 h -4.63672 c 0.23438,-3.398438 0.35547,-7.277344 0.35547,-11.644532 0,-3.652344 -0.0703,-6.707031 -0.20312,-9.171875 -2.65235,0 -5.39453,0.136719 -8.23047,0.40625 l 0.15234,-3.796875 h 20.58594"
       style="fill:#ffffff;fill-opacity:1;fill-rule:nonzero;stroke:none"
       inkscape:connector-curvature="0" />
    <path
       id="path30"
       d="m 387.46484,10.410156 c 0,1.085938 -1.28125,4.554688 -3.84765,10.398438 -2.9375,6.675781 -4.76563,11.378906 -5.48047,14.113281 -1.16797,4.433594 -2.25781,7.253906 -3.26172,8.460937 -1.35547,1.664063 -3.77734,2.496094 -7.25781,2.496094 L 367.41406,42.3125 c 2.11719,0 3.88672,-0.722656 5.29688,-2.164062 1.41015,-1.445313 2.11328,-3.253907 2.11328,-5.429688 0,-1.882812 -1.5625,-6.371094 -4.6875,-13.453125 -3.125,-7.082031 -4.6875,-10.703125 -4.6875,-10.855469 h 5.27344 c 0,0.460938 1.07421,3.550782 3.21484,9.277344 2.13672,5.722656 3.20703,9.25 3.20703,10.574219 h 0.25391 c 0,-1.105469 0.90625,-4.308594 2.71484,-9.609375 1.80859,-5.296875 2.71094,-8.710938 2.71094,-10.242188 h 4.64062"
       style="fill:#ffffff;fill-opacity:1;fill-rule:nonzero;stroke:none"
       inkscape:connector-curvature="0" />
    <path
       id="path32"
       d="m 410.44531,10.410156 -0.15234,3.796875 c -2.76563,-0.269531 -5.48438,-0.40625 -8.15235,-0.40625 -0.0703,2.359375 -0.10156,5.417969 -0.10156,9.171875 0,4.078125 0.12891,7.960938 0.38281,11.644532 h -4.63671 c 0.23437,-3.398438 0.35546,-7.277344 0.35546,-11.644532 0,-3.652344 -0.0703,-6.707031 -0.20312,-9.171875 -2.65234,0 -5.39453,0.136719 -8.23047,0.40625 l 0.14844,-3.796875 h 20.58984"
       style="fill:#ffffff;fill-opacity:1;fill-rule:nonzero;stroke:none"
       inkscape:connector-curvature="0" />
    <path
       id="path34"
       d="m 235.25,43.398438 c -0.20313,5.417968 -0.30469,10.597656 -0.30469,15.542968 0,6.214844 0.10156,12.09375 0.30469,17.632813 h -4.6875 c 0.18359,-4.757813 0.27734,-10.339844 0.27734,-16.742188 0,-5.078125 -0.0352,-9.488281 -0.10156,-13.222656 h -6.29297 c -0.13672,0.796875 -0.375,1.839844 -0.71094,3.121094 -0.34375,1.28125 -0.76171,2.703125 -1.26171,4.253906 -0.50391,1.554687 -1.07422,3.195313 -1.70704,4.917969 -0.63671,1.726562 -1.33203,3.425781 -2.07812,5.109375 -0.74609,1.683593 -1.53125,3.292969 -2.35938,4.828125 -0.82421,1.539062 -1.66406,2.898437 -2.53125,4.089844 -0.86718,1.1875 -1.74609,2.148437 -2.64062,2.878906 -0.89063,0.730468 -1.77734,1.128906 -2.66016,1.199218 l -0.2539,-4.585937 c 0.45703,-0.101563 0.98047,-0.472656 1.5664,-1.109375 0.58203,-0.636719 1.20703,-1.464844 1.8711,-2.484375 0.66406,-1.019531 1.34375,-2.195313 2.03906,-3.53125 0.69531,-1.332031 1.37891,-2.75 2.05078,-4.253906 0.67188,-1.503907 1.32031,-3.054688 1.94922,-4.648438 0.62891,-1.597656 1.19922,-3.167969 1.70703,-4.714843 0.51172,-1.546876 0.94922,-3.027344 1.3125,-4.445313 0.36719,-1.417969 0.63281,-2.699219 0.80078,-3.835937 H 235.25"
       style="fill:#ffffff;fill-opacity:1;fill-rule:nonzero;stroke:none"
       inkscape:connector-curvature="0" />
    <path
       id="path36"
       d="m 264.24609,76.574219 h -4.5625 c 0.25782,-2.90625 0.38282,-6.789063 0.38282,-11.644531 0,-1.375 0.0859,-3.441407 0.2539,-6.191407 h -0.2539 c -0.35547,1.171875 -2.67188,4.253907 -6.95313,9.246094 -4.0625,4.773437 -6.09375,7.636719 -6.09375,8.589844 h -3.61719 c 0.23828,-3.398438 0.35547,-7.28125 0.35547,-11.644531 0,-4.910157 -0.29297,-9.03125 -0.89062,-12.359376 l 5.04687,-0.6875 c -0.22265,3.140626 -0.33203,7.144532 -0.33203,12 0,1.71875 -0.0508,3.890626 -0.15234,6.523438 h 0.2539 c 0.39063,-1.070312 2.69922,-4.144531 6.92969,-9.222656 3.97656,-4.773438 5.96094,-7.644532 5.96094,-8.613282 l 3.62109,-0.6875 c -0.20312,3.550782 -0.30469,7.898438 -0.30469,13.046876 0,4.074218 0.11719,7.957031 0.35547,11.644531"
       style="fill:#ffffff;fill-opacity:1;fill-rule:nonzero;stroke:none"
       inkscape:connector-curvature="0" />
    <path
       id="path38"
       d="m 291.38281,76.574219 h -4.46094 c 0.22266,-3.246094 0.33985,-6.980469 0.35547,-11.210938 h -12.20312 c 0,3.804688 0.1289,7.539063 0.38281,11.210938 h -4.46094 c 0.25391,-3.398438 0.38282,-7.28125 0.38282,-11.644531 0,-4.910157 -0.30469,-9.03125 -0.91797,-12.359376 l 4.94531,-0.6875 c -0.0859,1.222657 -0.19531,4.628907 -0.33203,10.21875 h 12.15625 c -0.10156,-3.804687 -0.38672,-6.984374 -0.84375,-9.53125 l 4.9414,-0.6875 C 291.10937,55.433594 291,59.78125 291,64.929688 c 0,4.074218 0.125,7.957031 0.38281,11.644531"
       style="fill:#ffffff;fill-opacity:1;fill-rule:nonzero;stroke:none"
       inkscape:connector-curvature="0" />
    <path
       id="path40"
       d="m 314.13672,52.367188 -0.15625,3.921874 c -2.97266,-0.285156 -7.08203,-0.433593 -12.33203,-0.433593 0.0859,3.417969 0.1289,6.441406 0.1289,9.074219 0,4.074218 0.11719,7.957031 0.35938,11.644531 h -4.53906 c 0.25781,-3.398438 0.38281,-7.28125 0.38281,-11.644531 0,-4.910157 -0.125,-9.097657 -0.38281,-12.5625 h 16.53906"
       style="fill:#ffffff;fill-opacity:1;fill-rule:nonzero;stroke:none"
       inkscape:connector-curvature="0" />
    <path
       id="path42"
       d="m 333.88281,69.667969 c 0,-1.75 -0.80078,-2.929688 -2.39453,-3.539063 -0.98828,-0.375 -2.52344,-0.5625 -4.61328,-0.5625 -1.59766,0 -3.1875,0.05859 -4.76563,0.175782 0,3.027343 0.0195,5.539062 0.0508,7.542968 1.54687,0.203125 3.39843,0.304688 5.55859,0.304688 4.10937,0 6.16406,-1.304688 6.16406,-3.921875 z m -0.89453,-10.878907 c 0,-2.378906 -1.73047,-3.566406 -5.19531,-3.566406 -1.69922,0 -3.66406,0.07422 -5.88672,0.226563 0.13672,2.464843 0.20312,4.832031 0.20312,7.109375 2.1211,0.08594 3.91407,0.128906 5.37891,0.128906 1.74609,0 3.11719,-0.375 4.10156,-1.125 0.9336,-0.695312 1.39844,-1.617188 1.39844,-2.773438 z m 5.02344,10.621094 c 0,2.378906 -0.97266,4.195313 -2.90625,5.441406 -1.9375,1.25 -4.69922,1.875 -8.28125,1.875 -1.90235,0 -4.83985,-0.05078 -8.81641,-0.152343 0.23828,-2.328125 0.35547,-6.226563 0.35547,-11.695313 0,-5.078125 -0.29687,-9.25 -0.89062,-12.511718 h 2.64843 c 2.53125,-0.1875 5.10547,-0.28125 7.72266,-0.28125 6.04687,0 9.07031,1.867187 9.07031,5.605468 0,2.75 -1.23047,4.636719 -3.69531,5.660156 v 0.25 c 3.19531,0.613282 4.79297,2.550782 4.79297,5.808594"
       style="fill:#ffffff;fill-opacity:1;fill-rule:nonzero;stroke:none"
       inkscape:connector-curvature="0" />
    <path
       id="path44"
       d="m 364.88672,76.574219 h -4.5586 c 0.25782,-2.90625 0.38282,-6.789063 0.38282,-11.644531 0,-1.375 0.082,-3.441407 0.2539,-6.191407 h -0.2539 c -0.35547,1.171875 -2.67578,4.253907 -6.95703,9.246094 -4.0586,4.773437 -6.08985,7.636719 -6.08985,8.589844 h -3.61719 c 0.23829,-3.398438 0.35547,-7.28125 0.35547,-11.644531 0,-4.910157 -0.29687,-9.03125 -0.89062,-12.359376 l 5.04687,-0.6875 c -0.22265,3.140626 -0.33203,7.144532 -0.33203,12 0,1.71875 -0.0547,3.890626 -0.15625,6.523438 h 0.25781 c 0.39063,-1.070312 2.69922,-4.144531 6.92969,-9.222656 3.97656,-4.773438 5.96094,-7.644532 5.96094,-8.613282 l 3.62109,-0.6875 c -0.20703,3.550782 -0.30859,7.898438 -0.30859,13.046876 0,4.074218 0.12109,7.957031 0.35547,11.644531"
       style="fill:#ffffff;fill-opacity:1;fill-rule:nonzero;stroke:none"
       inkscape:connector-curvature="0" />
    <path
       id="path46"
       d="m 390.16797,72.671875 -0.25781,3.417969 c -1.375,0.78125 -3.21875,1.171875 -5.53125,1.171875 -4.39844,0 -7.76172,-1.214844 -10.08985,-3.644531 -2.32422,-2.429688 -3.48828,-5.359376 -3.48828,-8.792969 0,-3.632813 1.22266,-6.757813 3.67188,-9.375 2.44531,-2.613281 5.67968,-3.921875 9.70312,-3.921875 2.02344,0 3.67188,0.203125 4.94531,0.613281 l -0.6875,3.996094 c -1.78515,-0.660157 -3.59375,-0.992188 -5.42578,-0.992188 -2.41406,0 -4.33594,0.839844 -5.76172,2.523438 -1.42578,1.679687 -2.14062,3.785156 -2.14062,6.316406 0,2.753906 0.85156,5.046875 2.54687,6.882813 1.70313,1.832031 4.10547,2.75 7.21485,2.75 1.27343,0 3.03906,-0.3125 5.30078,-0.945313"
       style="fill:#ffffff;fill-opacity:1;fill-rule:nonzero;stroke:none"
       inkscape:connector-curvature="0" />
    <path
       id="path48"
       d="m 413.70703,52.367188 -0.15234,3.796874 c -2.76953,-0.273437 -5.48828,-0.410156 -8.15235,-0.410156 -0.0703,2.363282 -0.10156,5.421875 -0.10156,9.175782 0,4.074218 0.12891,7.957031 0.37891,11.644531 h -4.63282 c 0.23438,-3.398438 0.35547,-7.28125 0.35547,-11.644531 0,-3.652344 -0.0703,-6.710938 -0.20703,-9.175782 -2.64844,0 -5.39062,0.136719 -8.22656,0.410156 l 0.14844,-3.796874 h 20.58984"
       style="fill:#ffffff;fill-opacity:1;fill-rule:nonzero;stroke:none"
       inkscape:connector-curvature="0" />
    <path
       id="path50"
       d="m 439.03516,76.574219 h -4.5586 c 0.25391,-2.90625 0.37891,-6.789063 0.37891,-11.644531 0,-1.375 0.0859,-3.441407 0.25781,-6.191407 h -0.25781 c -0.35547,1.171875 -2.67188,4.253907 -6.95313,9.246094 -4.05859,4.773437 -6.08984,7.636719 -6.08984,8.589844 h -3.61719 c 0.23438,-3.398438 0.35547,-7.28125 0.35547,-11.644531 0,-4.910157 -0.29687,-9.03125 -0.89453,-12.359376 l 5.04687,-0.6875 c -0.22265,3.140626 -0.33203,7.144532 -0.33203,12 0,1.71875 -0.0508,3.890626 -0.15234,6.523438 h 0.25781 c 0.39063,-1.070312 2.69922,-4.144531 6.92969,-9.222656 3.97266,-4.773438 5.96094,-7.644532 5.96094,-8.613282 l 3.61718,-0.6875 c -0.20312,3.550782 -0.30468,7.898438 -0.30468,13.046876 0,4.074218 0.11718,7.957031 0.35547,11.644531"
       style="fill:#ffffff;fill-opacity:1;fill-rule:nonzero;stroke:none"
       inkscape:connector-curvature="0" />
    <path
       id="path52"
       d="m 463.59766,76.574219 h -4.53516 c 0.25391,-3.125 0.38281,-6.828125 0.38281,-11.109375 -1.9375,1.070312 -4.32422,1.601562 -7.16015,1.601562 -2.8711,0 -4.9961,-0.671875 -6.3711,-2.023437 -1.375,-1.351563 -2.0625,-4.121094 -2.0625,-8.316407 0,-0.871093 -0.10156,-2.285156 -0.30469,-4.257812 l 4.48438,-0.636719 c -0.15625,1.613281 -0.23047,2.914063 -0.23047,3.898438 0,3.074219 0.40625,5.160156 1.22266,6.253906 0.8164,1.097656 2.24218,1.644531 4.28125,1.644531 2.47656,0 4.50781,-0.390625 6.08984,-1.171875 -0.10547,-3.941406 -0.35937,-7.234375 -0.76562,-9.886719 l 4.91796,-0.6875 c -0.20312,3.550782 -0.30468,7.898438 -0.30468,13.046876 0,4.074218 0.11718,7.957031 0.35547,11.644531"
       style="fill:#ffffff;fill-opacity:1;fill-rule:nonzero;stroke:none"
       inkscape:connector-curvature="0" />
    <path
       id="path54"
       d="m 486.98828,61.664062 c 0,-4.769531 -2,-7.15625 -5.98828,-7.15625 -4.07813,0 -6.48047,2.480469 -7.21094,7.441407 z m 4.25391,-0.04687 c 0,0.710937 -0.0352,1.699218 -0.10157,2.957031 l -17.5039,0.304687 c 0.16797,2.476563 1.1289,4.558594 2.8789,6.226563 1.75,1.675781 4.07032,2.511719 6.95704,2.511719 2.58203,0 5.0039,-0.3125 7.26171,-0.945313 l -0.43359,3.59375 c -1.66406,0.664063 -4.06641,0.996094 -7.21094,0.996094 -4.41797,0 -7.78515,-1.207031 -10.10156,-3.617188 -2.32031,-2.414062 -3.48047,-5.355469 -3.48047,-8.820312 0,-3.699219 1.0586,-6.890625 3.17578,-9.566407 2.11328,-2.671874 4.95313,-4.011718 8.51953,-4.011718 3.27735,0 5.77344,0.96875 7.48047,2.90625 1.70703,1.933594 2.5586,4.421875 2.5586,7.464844"
       style="fill:#ffffff;fill-opacity:1;fill-rule:nonzero;stroke:none"
       inkscape:connector-curvature="0" />
    <path
       id="path56"
       d="m 515.65234,72.671875 -0.2539,3.417969 c -1.37891,0.78125 -3.22266,1.171875 -5.53125,1.171875 -4.39844,0 -7.76172,-1.214844 -10.08985,-3.644531 -2.32812,-2.429688 -3.49218,-5.359376 -3.49218,-8.792969 0,-3.632813 1.22656,-6.757813 3.67187,-9.375 2.44531,-2.613281 5.67969,-3.921875 9.70703,-3.921875 2.02344,0 3.67188,0.203125 4.94141,0.613281 l -0.6875,3.996094 c -1.78125,-0.660157 -3.59375,-0.992188 -5.42578,-0.992188 -2.41016,0 -4.33203,0.839844 -5.75782,2.523438 -1.42578,1.679687 -2.14062,3.785156 -2.14062,6.316406 0,2.753906 0.84766,5.046875 2.54687,6.882813 1.69922,1.832031 4.10547,2.75 7.21094,2.75 1.27735,0 3.04297,-0.3125 5.30078,-0.945313"
       style="fill:#ffffff;fill-opacity:1;fill-rule:nonzero;stroke:none"
       inkscape:connector-curvature="0" />
    <path
       id="path58"
       d="m 541.18359,76.574219 h -4.61328 c -0.13281,-0.238281 -0.33984,-0.679688 -0.60937,-1.328125 -1.08985,-3.546875 -2.25391,-6.011719 -3.49219,-7.386719 -1.23828,-1.375 -2.87109,-2.0625 -4.89453,-2.0625 -0.69531,0 -1.59375,0.01563 -2.69531,0.04687 0,3.925781 0.125,7.503906 0.3789,10.730469 h -4.55859 c 0.25,-3.398438 0.3789,-7.28125 0.3789,-11.644531 0,-4.910157 -0.30468,-9.03125 -0.91796,-12.359376 l 5.05078,-0.6875 c -0.22657,3.261719 -0.33203,6.871094 -0.33203,10.828126 1.01562,0.03516 1.91796,0.05078 2.69531,0.05078 3.77344,0 6.42187,-3.074219 7.94922,-9.222657 0.10547,-0.390624 0.29297,-0.78125 0.5664,-1.171874 h 4.20313 c -0.17188,0.390624 -0.46094,1.113281 -0.86719,2.164062 -1.9375,5.320312 -4.10937,8.4375 -6.52344,9.351562 v 0.257813 c 1.61328,0.472656 2.95703,1.46875 4.03516,2.980469 1.08203,1.511718 2.12109,3.726562 3.125,6.648437 0.30469,0.902344 0.67578,1.835938 1.12109,2.804688"
       style="fill:#ffffff;fill-opacity:1;fill-rule:nonzero;stroke:none"
       inkscape:connector-curvature="0" />
    <path
       id="path60"
       d="m 566.99219,76.574219 h -4.5586 c 0.25391,-2.90625 0.37891,-6.789063 0.37891,-11.644531 0,-1.375 0.0859,-3.441407 0.25781,-6.191407 h -0.25781 c -0.35547,1.171875 -2.67188,4.253907 -6.95313,9.246094 -4.05859,4.773437 -6.08984,7.636719 -6.08984,8.589844 h -3.61719 c 0.23828,-3.398438 0.35547,-7.28125 0.35547,-11.644531 0,-4.910157 -0.29687,-9.03125 -0.89453,-12.359376 l 5.04688,-0.6875 c -0.22266,3.140626 -0.33204,7.144532 -0.33204,12 0,1.71875 -0.0508,3.890626 -0.15234,6.523438 h 0.25781 c 0.39063,-1.070312 2.69922,-4.144531 6.92969,-9.222656 3.97266,-4.773438 5.96094,-7.644532 5.96094,-8.613282 l 3.61719,-0.6875 c -0.20313,3.550782 -0.30469,7.898438 -0.30469,13.046876 0,4.074218 0.12109,7.957031 0.35547,11.644531"
       style="fill:#ffffff;fill-opacity:1;fill-rule:nonzero;stroke:none"
       inkscape:connector-curvature="0" />
    <g
       id="g64"
       clip-path="url(#clip1)"
       style="clip-rule:nonzero">
      <path
         id="path62"
         d="m 595.27734,76.574219 h -5.53125 c 0,-0.425781 -0.8164,-1.871094 -2.44531,-4.332031 -1.62891,-2.464844 -3.06641,-4.527344 -4.30469,-6.191407 h -0.20312 c -0.86719,1.1875 -2.0625,3.109375 -3.59375,5.769531 -1.52735,2.660157 -2.29688,4.242188 -2.29688,4.753907 h -5.11718 c 0,-0.492188 1.21484,-2.363281 3.64453,-5.605469 2.42968,-3.246094 4.38672,-5.65625 5.88281,-7.238281 v -0.203125 c -1.12109,-1.238282 -2.80078,-3.332032 -5.04297,-6.28125 -2.24219,-2.945313 -3.36328,-4.574219 -3.36328,-4.878906 h 5.44922 c 0,0.40625 0.6875,1.714843 2.05469,3.921874 1.36718,2.210938 2.50781,3.902344 3.42578,5.070313 h 0.23047 c 0.83203,-1 1.91406,-2.636719 3.24609,-4.914063 1.33594,-2.277343 2.00391,-3.636718 2.00391,-4.078124 h 4.83984 c 0,0.289062 -1.15234,1.941406 -3.45313,4.957031 -2.30078,3.015625 -3.95703,5.023437 -4.95312,6.027343 v 0.277344 c 1.44141,1.683594 3.38672,4.160156 5.84375,7.441406 2.45703,3.277344 3.68359,5.109376 3.68359,5.503907"
         style="fill:#ffffff;fill-opacity:1;fill-rule:nonzero;stroke:none"
         inkscape:connector-curvature="0" />
    </g>
    <path
       id="path66"
       d="m 235.27344,118.78125 h -4.83985 c 0.23828,-3.16016 0.35547,-7.88281 0.35547,-14.16797 0,-2.88672 0.0508,-6.554686 0.15235,-11.003905 h -0.25391 c -0.59375,1.695313 -3.77344,6.039063 -9.52734,13.019535 -5.3711,6.5039 -8.05079,10.55859 -8.05079,12.15234 h -3.57031 c 0.28906,-4.5 0.4375,-9.75 0.4375,-15.74609 0,-6.09766 -0.14844,-11.906254 -0.4375,-17.429691 h 4.79297 c -0.24219,4.589843 -0.35937,9.734375 -0.35937,15.441411 0,2.92187 -0.0781,6.16796 -0.22657,9.73437 h 0.27735 c 0.69922,-1.69922 3.94922,-6.01953 9.75781,-12.96875 5.26953,-6.300781 7.90234,-10.371094 7.90234,-12.207031 h 3.58985 c -0.25391,5.523437 -0.38282,11.332031 -0.38282,17.429691 0,5.99609 0.12891,11.24609 0.38282,15.74609"
       style="fill:#ffffff;fill-opacity:1;fill-rule:nonzero;stroke:none"
       inkscape:connector-curvature="0" />
    <path
       id="path68"
       d="m 261.95312,114.88281 -0.25781,3.41407 c -1.375,0.78125 -3.21875,1.17187 -5.52734,1.17187 -4.39844,0 -7.76563,-1.21094 -10.08985,-3.64062 -2.32812,-2.42969 -3.48828,-5.35938 -3.48828,-8.79297 0,-3.63282 1.22266,-6.75782 3.66797,-9.375004 2.44531,-2.617187 5.67969,-3.925781 9.70703,-3.925781 2.01953,0 3.66797,0.207031 4.94141,0.613281 l -0.6875,4 c -1.78516,-0.664062 -3.58984,-0.996094 -5.42578,-0.996094 -2.41406,0 -4.33203,0.84375 -5.76172,2.523438 -1.42578,1.68359 -2.14063,3.78906 -2.14063,6.32031 0,2.75 0.85157,5.04297 2.55079,6.87891 1.69921,1.83594 4.10156,2.75391 7.21093,2.75391 1.27344,0 3.03907,-0.31641 5.30078,-0.94532"
       style="fill:#ffffff;fill-opacity:1;fill-rule:nonzero;stroke:none"
       inkscape:connector-curvature="0" />
    <path
       id="path70"
       d="m 285.51953,114.88281 -0.25391,3.41407 c -1.375,0.78125 -3.22265,1.17187 -5.53125,1.17187 -4.39843,0 -7.76171,-1.21094 -10.08984,-3.64062 -2.32812,-2.42969 -3.48828,-5.35938 -3.48828,-8.79297 0,-3.63282 1.22266,-6.75782 3.66797,-9.375004 2.44531,-2.617187 5.67969,-3.925781 9.70703,-3.925781 2.02344,0 3.66797,0.207031 4.94141,0.613281 l -0.6875,4 c -1.78125,-0.664062 -3.59375,-0.996094 -5.42579,-0.996094 -2.41015,0 -4.33203,0.84375 -5.75781,2.523438 -1.42578,1.68359 -2.14062,3.78906 -2.14062,6.32031 0,2.75 0.84765,5.04297 2.55078,6.87891 1.69531,1.83594 4.10156,2.75391 7.20703,2.75391 1.27734,0 3.04297,-0.31641 5.30078,-0.94532"
       style="fill:#ffffff;fill-opacity:1;fill-rule:nonzero;stroke:none"
       inkscape:connector-curvature="0" />
    <path
       id="path72"
       d="m 309.87891,118.78125 h -4.4336 c 0.23828,-3.05469 0.35547,-6.76953 0.35547,-11.13672 0,-3.44531 -0.0664,-6.74219 -0.20312,-9.882811 h -5.07032 c -0.49218,1.902343 -1.04687,3.757811 -1.65625,5.566411 -0.61328,1.80859 -1.26562,3.50781 -1.96093,5.09765 -0.69532,1.58985 -1.42579,3.04297 -2.19141,4.3711 -0.76172,1.32421 -1.53906,2.46093 -2.32031,3.41015 -0.78125,0.95313 -1.57032,1.69141 -2.36719,2.21875 -0.80078,0.52735 -1.57813,0.78906 -2.34375,0.78906 l -0.25391,-4.07421 c 0.42188,-0.0352 0.91797,-0.3125 1.48828,-0.82813 0.57032,-0.51953 1.17188,-1.24219 1.8086,-2.16797 0.63672,-0.92578 1.29297,-2.02734 1.96094,-3.30078 0.67187,-1.27344 1.32812,-2.66406 1.97656,-4.17578 0.64453,-1.51563 1.26172,-3.125 1.84375,-4.828126 0.58984,-1.710938 1.10156,-3.464844 1.54297,-5.261719 h 8.35937 l 3.44141,-0.488281 c -0.22266,3.550781 -0.33203,7.902346 -0.33203,13.046876 0,4.07812 0.11718,7.96094 0.35547,11.64453"
       style="fill:#ffffff;fill-opacity:1;fill-rule:nonzero;stroke:none"
       inkscape:connector-curvature="0" />
    <path
       id="path74"
       d="m 333.26953,103.875 c 0,-4.773438 -2,-7.15625 -5.98828,-7.15625 -4.07813,0 -6.48047,2.480469 -7.21094,7.4375 z m 4.25391,-0.0469 c 0,0.71093 -0.0352,1.69531 -0.10157,2.95312 l -17.5039,0.30859 c 0.16797,2.47657 1.1289,4.55469 2.8789,6.22657 1.7461,1.67187 4.06641,2.51172 6.95704,2.51172 2.57812,0 5.0039,-0.31641 7.26171,-0.94532 l -0.43359,3.59375 c -1.66406,0.66407 -4.06641,0.99219 -7.21094,0.99219 -4.41797,0 -7.78515,-1.20312 -10.10156,-3.61719 -2.32031,-2.41406 -3.48047,-5.35156 -3.48047,-8.8164 0,-3.70313 1.0586,-6.89063 3.17188,-9.56641 2.11328,-2.675781 4.95312,-4.011719 8.52343,-4.011719 3.27735,0 5.77344,0.964844 7.48047,2.902344 1.70313,1.9375 2.5586,4.425785 2.5586,7.468755"
       style="fill:#ffffff;fill-opacity:1;fill-rule:nonzero;stroke:none"
       inkscape:connector-curvature="0" />
    <path
       id="path76"
       d="m 359.35937,115.51953 c -0.1875,-3.3125 -0.27734,-6.10547 -0.27734,-8.38281 0,-3.39453 -0.0703,-6.52344 -0.20312,-9.375001 h -4.4375 c -1.05079,1.902343 -2.30079,4.445311 -3.74219,7.632811 -1.44531,3.1836 -2.61719,6.5586 -3.51953,10.125 z m 8.66407,0 c 0,0.88281 -0.19922,2.96485 -0.59766,6.2461 -0.40234,3.27734 -0.59766,5.80859 -0.59766,7.58984 h -3.03515 c 0,-2.15625 -0.0234,-5.72266 -0.0742,-10.70313 -2.3125,-0.10156 -5.57422,-0.14843 -9.78516,-0.14843 -2.69922,0 -5.58984,0.0469 -8.66406,0.14843 -0.79687,4.98047 -1.19531,8.54688 -1.19531,10.70313 h -3.03125 c 0,-1.52734 -0.0156,-3.69141 -0.0391,-6.48438 -0.0274,-2.79296 -0.0391,-5.24609 -0.0391,-7.35156 h 2.52344 c 1.71094,-6.16406 4.66016,-13.14844 8.83984,-20.941405 h 7.36329 l 3.4414,-0.488281 c -0.22265,3.550781 -0.33203,7.902346 -0.33203,13.046876 0,2.07422 0.15234,4.86719 0.46094,8.38281 h 4.76172"
       style="fill:#ffffff;fill-opacity:1;fill-rule:nonzero;stroke:none"
       inkscape:connector-curvature="0" />
    <path
       id="path78"
       d="m 391.64453,106.83203 c 0,-2.64844 -0.66797,-5.00781 -2.00391,-7.070311 -1.33203,-2.0625 -3.23046,-3.097657 -5.69531,-3.097657 -2.44531,0 -4.32422,0.976563 -5.64062,2.929688 -1.32032,1.95703 -1.97657,4.22266 -1.97657,6.80469 0,2.66797 0.66797,5.03125 2,7.08203 1.33594,2.05469 3.24219,3.08594 5.71875,3.08594 2.44532,0 4.32422,-0.98047 5.63282,-2.94532 1.30859,-1.96093 1.96484,-4.22265 1.96484,-6.78906 z m 4.40625,-0.89062 c 0,4.34765 -1.25,7.74218 -3.74609,10.17578 -2.4961,2.4414 -5.4375,3.65625 -8.81641,3.65625 -3.16016,0 -5.875,-1.07813 -8.14062,-3.23438 -2.26563,-2.15625 -3.40235,-5.19531 -3.40235,-9.12109 0,-4.38281 1.25391,-7.804689 3.75781,-10.269532 2.50782,-2.460938 5.44922,-3.691407 8.83204,-3.691407 3.16015,0 5.86718,1.089844 8.125,3.273438 2.26171,2.183593 3.39062,5.250001 3.39062,9.210941"
       style="fill:#ffffff;fill-opacity:1;fill-rule:nonzero;stroke:none"
       inkscape:connector-curvature="0" />
    <path
       id="path80"
       d="m 417.80859,111.87891 c 0,-1.75 -0.79687,-2.9336 -2.39453,-3.54297 -0.98437,-0.375 -2.52344,-0.5625 -4.60937,-0.5625 -1.59766,0 -3.1875,0.0625 -4.76563,0.17969 0,3.02343 0.0156,5.53906 0.0508,7.54296 1.54297,0.20313 3.39453,0.30469 5.55469,0.30469 4.10938,0 6.16406,-1.30859 6.16406,-3.92187 z m -0.89062,-10.88282 c 0,-2.378902 -1.73047,-3.566402 -5.19531,-3.566402 -1.70313,0 -3.66407,0.07812 -5.88672,0.230468 0.13672,2.460934 0.20312,4.832034 0.20312,7.109374 2.1211,0.0859 3.91406,0.125 5.375,0.125 1.75,0 3.11719,-0.37109 4.10547,-1.12109 0.93359,-0.69531 1.39844,-1.6211 1.39844,-2.77735 z m 5.01953,10.625 c 0,2.37891 -0.96875,4.19141 -2.90625,5.44141 -1.93359,1.24609 -4.69531,1.87109 -8.28125,1.87109 -1.89844,0 -4.83984,-0.0508 -8.8125,-0.15234 0.23437,-2.32812 0.35547,-6.22266 0.35547,-11.69141 0,-5.08203 -0.29688,-9.249996 -0.89063,-12.511715 h 2.64844 c 2.53125,-0.1875 5.10547,-0.28125 7.71875,-0.28125 6.05078,0 9.07031,1.867187 9.07031,5.605469 0,2.749996 -1.23047,4.636716 -3.6914,5.656246 v 0.25391 c 3.1914,0.60938 4.78906,2.54688 4.78906,5.80859"
       style="fill:#ffffff;fill-opacity:1;fill-rule:nonzero;stroke:none"
       inkscape:connector-curvature="0" />
    <path
       id="path82"
       d="m 442.60156,113.83984 c -0.0859,-2.58203 -0.125,-4.90234 -0.125,-6.95703 -3.19531,0 -5.625,0.23828 -7.28906,0.71485 -2.78516,0.84765 -4.17578,2.46875 -4.17578,4.86718 0,2.3086 1.6289,3.46485 4.89062,3.46485 2.80469,0 5.03516,-0.69922 6.69922,-2.08985 z m 4.51172,4.94141 -4,0.15234 c -0.20703,-0.83203 -0.30859,-1.62109 -0.30859,-2.36718 h -0.25 c -2.09375,1.90234 -4.9375,2.85156 -8.53516,2.85156 -1.95703,0 -3.63672,-0.57031 -5.04687,-1.71875 -1.41016,-1.14453 -2.11719,-2.78125 -2.11719,-4.90234 0,-2.61719 1.10547,-4.71875 3.3125,-6.3086 2.21094,-1.58984 6.3125,-2.42578 12.30859,-2.51172 0.0508,-0.40625 0.0781,-0.875 0.0781,-1.39843 0,-2.08985 -0.5625,-3.48438 -1.67188,-4.179692 -1.11328,-0.695313 -2.79687,-1.046876 -5.05859,-1.046876 -2.66406,0 -5.29297,0.332032 -7.8711,0.996094 l 0.4336,-3.515625 c 2.54687,-0.730469 5.47656,-1.097656 8.78906,-1.097656 3.02344,0 5.35938,0.625 7.00781,1.875 1.64844,1.246094 2.47266,3.375 2.47266,6.382815 0,0.79687 -0.0391,2.24609 -0.11719,4.34375 -0.0781,2.09765 -0.11328,3.49219 -0.11328,4.1914 0,3.08985 0.23047,5.84375 0.6875,8.25391"
       style="fill:#ffffff;fill-opacity:1;fill-rule:nonzero;stroke:none"
       inkscape:connector-curvature="0" />
    <path
       id="path84"
       d="m 473.96875,118.78125 h -4.46094 c 0.22266,-3.24609 0.33985,-6.98047 0.35938,-11.21094 h -12.20703 c 0,3.80469 0.1289,7.54297 0.38671,11.21094 h -4.46484 c 0.25781,-3.39844 0.38672,-7.27734 0.38672,-11.64453 0,-4.91016 -0.30859,-9.027345 -0.91797,-12.35547 l 4.94141,-0.691406 c -0.0859,1.226562 -0.19532,4.628906 -0.33203,10.218746 h 12.15234 c -0.0977,-3.80468 -0.37891,-6.980465 -0.83984,-9.52734 l 4.94531,-0.691406 c -0.22266,3.550781 -0.33203,7.902346 -0.33203,13.046876 0,4.07812 0.1289,7.96094 0.38281,11.64453"
       style="fill:#ffffff;fill-opacity:1;fill-rule:nonzero;stroke:none"
       inkscape:connector-curvature="0" />
    <path
       id="path86"
       d="M 501.5625,118.78125 H 497 c 0.25781,-2.90234 0.38281,-6.78516 0.38281,-11.64453 0,-1.375 0.0859,-3.4375 0.25781,-6.19141 h -0.25781 c -0.35547,1.17188 -2.67187,4.25391 -6.95312,9.25 -4.0625,4.77344 -6.09375,7.63672 -6.09375,8.58594 h -3.61719 c 0.23828,-3.39844 0.35547,-7.27734 0.35547,-11.64453 0,-4.91016 -0.29688,-9.027345 -0.89063,-12.35547 l 5.04688,-0.691406 c -0.22266,3.144531 -0.33203,7.144536 -0.33203,12.003906 0,1.71484 -0.0508,3.88672 -0.15625,6.52344 H 485 c 0.39062,-1.07031 2.69922,-4.14453 6.92969,-9.22656 3.97656,-4.773442 5.96093,-7.64063 5.96093,-8.60938 l 3.6211,-0.691406 c -0.20313,3.550781 -0.3086,7.902346 -0.3086,13.046876 0,4.07812 0.1211,7.96094 0.35938,11.64453"
       style="fill:#ffffff;fill-opacity:1;fill-rule:nonzero;stroke:none"
       inkscape:connector-curvature="0" />
    <path
       id="path88"
       d="m 526.94141,83.722656 c 0,1.867188 -0.58985,3.554688 -1.77344,5.058594 -1.17969,1.5 -3.19531,2.253906 -6.05078,2.253906 -2.95703,0 -5.03907,-0.761718 -6.23828,-2.28125 -1.20704,-1.519531 -1.8125,-3.214844 -1.8125,-5.082031 l 3.66796,-0.484375 c 0,3.398438 1.46094,5.09375 4.38282,5.09375 1.71484,0 2.8789,-0.433594 3.49218,-1.3125 0.60938,-0.875 0.91407,-2.132812 0.91407,-3.78125 z m 2.21484,35.058594 h -4.55859 c 0.2539,-2.90234 0.38281,-6.78516 0.38281,-11.64453 0,-1.375 0.082,-3.4375 0.25,-6.19141 h -0.25 c -0.35938,1.17188 -2.67578,4.25391 -6.96094,9.25 -4.05859,4.77344 -6.08594,7.63672 -6.08594,8.58594 h -3.62109 c 0.24219,-3.39844 0.35937,-7.27734 0.35937,-11.64453 0,-4.91016 -0.30078,-9.027345 -0.89062,-12.35547 l 5.04297,-0.691406 c -0.21875,3.144531 -0.33203,7.144536 -0.33203,12.003906 0,1.71484 -0.0508,3.88672 -0.15235,6.52344 h 0.25391 c 0.39062,-1.07031 2.70312,-4.14453 6.92969,-9.22656 3.97656,-4.773442 5.96484,-7.64063 5.96484,-8.60938 l 3.61719,-0.691406 c -0.20313,3.550781 -0.30469,7.902346 -0.30469,13.046876 0,4.07812 0.11719,7.96094 0.35547,11.64453"
       style="fill:#ffffff;fill-opacity:1;fill-rule:nonzero;stroke:none"
       inkscape:connector-curvature="0" />
    <path
       id="path90"
       d="m 212.69922,149.18359 c 0.33203,0.0742 0.6289,0.10938 1.11328,0.10938 2.8125,0 4.69922,-1.85156 4.69922,-5.3711 0,-2.55468 -1.07031,-4.85156 -4.22266,-4.85156 -0.66406,0 -1.22265,0.0742 -1.58984,0.1836 z m -2.85156,-11.96484 c 1.14453,-0.29688 2.51562,-0.48438 4.14843,-0.48438 2.29297,0 4.22266,0.5586 5.51953,1.85547 1.21875,1.1836 1.85157,3 1.85157,5.14844 0,2.29688 -0.55469,3.85156 -1.51953,5.10938 -1.3711,1.85156 -3.66407,2.77734 -5.88672,2.77734 -0.48438,0 -0.85157,0 -1.26172,-0.0352 v 10.22266 h -2.85156 v -24.59375"
       style="fill:#ffffff;fill-opacity:1;fill-rule:nonzero;stroke:none"
       inkscape:connector-curvature="0" />
    <path
       id="path92"
       d="m 225.66016,152.84766 c 0,2.96484 0.51953,7 3.10937,7 2.44531,0 2.92578,-4.22266 2.92578,-7 0,-2.74219 -0.48047,-6.96094 -2.99609,-6.96094 -2.5586,0 -3.03906,4.21875 -3.03906,6.96094 z m 8.92578,0 c 0,6.92578 -3.22266,9.25781 -5.96485,9.25781 -3.22265,0 -5.8125,-2.92578 -5.8125,-9.21875 0,-6.5586 2.92188,-9.29688 6,-9.29688 3.1836,0 5.77735,3 5.77735,9.25782"
       style="fill:#ffffff;fill-opacity:1;fill-rule:nonzero;stroke:none"
       inkscape:connector-curvature="0" />
    <path
       id="path94"
       d="m 246.62109,161.36719 c -0.6289,0.37109 -1.70312,0.66797 -2.96093,0.66797 -3.92969,0 -6.55469,-3.14844 -6.55469,-9.07422 0,-5.14844 2.58984,-9.33594 7.07031,-9.33594 0.96484,0 2.00391,0.26172 2.51953,0.55469 l -0.55469,2.33593 c -0.37109,-0.1875 -1.11328,-0.48046 -2.03515,-0.48046 -2.85547,0 -4.15235,3.40625 -4.15235,6.92578 0,4.18359 1.59375,6.70312 4.22266,6.70312 0.78125,0 1.40625,-0.18359 2.07422,-0.48437 l 0.37109,2.1875"
       style="fill:#ffffff;fill-opacity:1;fill-rule:nonzero;stroke:none"
       inkscape:connector-curvature="0" />
    <path
       id="path96"
       d="m 257.65625,161.36719 c -0.62891,0.37109 -1.70313,0.66797 -2.96094,0.66797 -3.92578,0 -6.55859,-3.14844 -6.55859,-9.07422 0,-5.14844 2.59375,-9.33594 7.07812,-9.33594 0.96094,0 1.9961,0.26172 2.51563,0.55469 l -0.55469,2.33593 c -0.37109,-0.1875 -1.10937,-0.48046 -2.03906,-0.48046 -2.85156,0 -4.14844,3.40625 -4.14844,6.92578 0,4.18359 1.59375,6.70312 4.22656,6.70312 0.77344,0 1.40625,-0.18359 2.07422,-0.48437 l 0.36719,2.1875"
       style="fill:#ffffff;fill-opacity:1;fill-rule:nonzero;stroke:none"
       inkscape:connector-curvature="0" />
    <path
       id="path98"
       d="m 262.80469,143.88672 v 6.14844 c 0,3.10937 -0.0391,5.77734 -0.22266,8.58984 h 0.0742 c 0.8125,-2.37109 1.85156,-4.92578 2.625,-6.96094 l 3.00391,-7.77734 h 3 v 17.92578 h -2.62891 v -5.89063 c 0,-3.88671 0.0742,-6 0.26172,-8.74218 h -0.0781 c -0.66797,2.22265 -1.37109,4.22265 -2.14453,6.1875 -0.59765,1.48047 -2.22265,5.55468 -3.55859,8.44531 h -2.92578 v -17.92578 h 2.59375"
       style="fill:#ffffff;fill-opacity:1;fill-rule:nonzero;stroke:none"
       inkscape:connector-curvature="0" />
    <path
       id="path100"
       d="m 278.6875,137.10937 c 0.15234,1.58985 0.85547,2.48047 2.1875,2.48047 1.40625,0 2.03516,-0.96484 2.22266,-2.48047 h 1.99609 c -0.33203,2.92579 -1.85156,4.10938 -4.25781,4.10938 -2.33203,0 -3.85157,-1.18359 -4.14844,-4.10938 z m -0.73828,6.77735 v 6.14844 c 0,3.10937 -0.0391,5.77734 -0.22266,8.58984 h 0.0742 c 0.8125,-2.37109 1.85156,-4.92578 2.62891,-6.96094 l 3,-7.77734 h 3 v 17.92578 h -2.62891 v -5.89063 c 0,-3.88671 0.0742,-6 0.25781,-8.74218 h -0.0742 c -0.66406,2.22265 -1.36718,4.22265 -2.14843,6.1875 -0.58985,1.48047 -2.22266,5.55468 -3.55469,8.44531 h -2.92578 v -17.92578 h 2.59375"
       style="fill:#ffffff;fill-opacity:1;fill-rule:nonzero;stroke:none"
       inkscape:connector-curvature="0" />
    <path
       id="path102"
       d="m 299.24219,161.36719 c -0.62891,0.37109 -1.70313,0.66797 -2.96094,0.66797 -3.92578,0 -6.55859,-3.14844 -6.55859,-9.07422 0,-5.14844 2.59375,-9.33594 7.07812,-9.33594 0.96094,0 1.99609,0.26172 2.51563,0.55469 l -0.55469,2.33593 c -0.3711,-0.1875 -1.10938,-0.48046 -2.03906,-0.48046 -2.85157,0 -4.14844,3.40625 -4.14844,6.92578 0,4.18359 1.59375,6.70312 4.22656,6.70312 0.77344,0 1.40625,-0.18359 2.07422,-0.48437 l 0.36719,2.1875"
       style="fill:#ffffff;fill-opacity:1;fill-rule:nonzero;stroke:none"
       inkscape:connector-curvature="0" />
    <path
       id="path104"
       d="m 304.57422,143.88672 v 7.77734 h 0.40625 l 4.70703,-7.77734 h 3.18359 l -5.59375,8.07422 c 2.44532,0.40625 3.66797,2.58984 4.33203,5.07031 0.41016,1.51953 0.89063,3.41016 1.48438,4.78125 h -2.89063 c -0.48046,-1.11328 -0.88671,-2.59375 -1.29687,-4.1875 -0.70313,-2.44141 -1.70313,-3.88672 -4.03516,-3.88672 h -0.29687 v 8.07422 h -2.77735 v -17.92578 h 2.77735"
       style="fill:#ffffff;fill-opacity:1;fill-rule:nonzero;stroke:none"
       inkscape:connector-curvature="0" />
    <path
       id="path106"
       d="m 317.46094,152.84766 c 0,2.96484 0.51953,7 3.11328,7 2.44531,0 2.92578,-4.22266 2.92578,-7 0,-2.74219 -0.48047,-6.96094 -3,-6.96094 -2.55859,0 -3.03906,4.21875 -3.03906,6.96094 z m 8.92968,0 c 0,6.92578 -3.22265,9.25781 -5.96484,9.25781 -3.22266,0 -5.8125,-2.92578 -5.8125,-9.21875 0,-6.5586 2.92188,-9.29688 6,-9.29688 3.17969,0 5.77734,3 5.77734,9.25782"
       style="fill:#ffffff;fill-opacity:1;fill-rule:nonzero;stroke:none"
       inkscape:connector-curvature="0" />
    <path
       id="path108"
       d="m 333.01172,137.10937 c 0.15234,1.58985 0.85547,2.48047 2.1875,2.48047 1.40625,0 2.03906,-0.96484 2.22265,-2.48047 h 2 c -0.33203,2.92579 -1.85156,4.10938 -4.25781,4.10938 -2.33594,0 -3.85547,-1.18359 -4.14844,-4.10938 z m -0.73828,6.77735 v 6.14844 c 0,3.10937 -0.0352,5.77734 -0.21875,8.58984 h 0.0703 c 0.81641,-2.37109 1.85156,-4.92578 2.63281,-6.96094 l 2.9961,-7.77734 h 3.0039 v 17.92578 h -2.6328 v -5.89063 c 0,-3.88671 0.0742,-6 0.26172,-8.74218 h -0.0781 c -0.66406,2.22265 -1.36718,4.22265 -2.14453,6.1875 -0.59375,1.48047 -2.22265,5.55468 -3.55469,8.44531 h -2.92578 v -17.92578 h 2.58985"
       style="fill:#ffffff;fill-opacity:1;fill-rule:nonzero;stroke:none"
       inkscape:connector-curvature="0" />
    <path
       id="path110"
       d="m 357.41797,152.55078 c -1.48047,0 -4.92578,0.26172 -4.92578,4.14844 0,2.33594 1.1875,3.1875 2.1875,3.1875 1.25781,0 2.33203,-0.92578 2.66797,-2.70313 0.0703,-0.33593 0.0703,-0.70312 0.0703,-1.0039 z m 0.40625,9.26172 -0.1836,-1.89063 h -0.10937 c -0.77734,1.3711 -2.03516,2.1836 -3.55469,2.1836 -2.41015,0 -4.26172,-2.03516 -4.26172,-5.10938 0,-4.48047 3.59375,-6.48047 7.63282,-6.51953 v -0.55469 c 0,-2.40625 -0.59375,-4.07421 -2.85547,-4.07421 -1.10938,0 -2.10938,0.37109 -2.96094,0.92578 l -0.62891,-2 c 0.73828,-0.55469 2.40625,-1.1836 4.1836,-1.1836 3.58984,0 5.14843,2.3711 5.14843,6.40625 v 7.74219 c 0,1.36719 0,2.92578 0.1836,4.07422 h -2.59375"
       style="fill:#ffffff;fill-opacity:1;fill-rule:nonzero;stroke:none"
       inkscape:connector-curvature="0" />
    <path
       id="path112"
       d="m 367.12109,143.88672 v 7.77734 h 0.40625 l 4.70313,-7.77734 h 3.1875 l -5.59375,8.07422 c 2.44531,0.40625 3.66797,2.58984 4.33594,5.07031 0.40625,1.51953 0.88671,3.41016 1.48046,4.78125 h -2.88671 c -0.48438,-1.11328 -0.89063,-2.59375 -1.29688,-4.1875 -0.70312,-2.44141 -1.70703,-3.88672 -4.03906,-3.88672 h -0.29688 v 8.07422 h -2.77734 v -17.92578 h 2.77734"
       style="fill:#ffffff;fill-opacity:1;fill-rule:nonzero;stroke:none"
       inkscape:connector-curvature="0" />
    <path
       id="path114"
       d="m 385.08203,152.55078 c -1.48047,0 -4.92578,0.26172 -4.92578,4.14844 0,2.33594 1.1875,3.1875 2.1875,3.1875 1.25781,0 2.32812,-0.92578 2.66406,-2.70313 0.0742,-0.33593 0.0742,-0.70312 0.0742,-1.0039 z m 0.40625,9.26172 -0.18359,-1.89063 h -0.11328 c -0.77344,1.3711 -2.03516,2.1836 -3.55469,2.1836 -2.40625,0 -4.25781,-2.03516 -4.25781,-5.10938 0,-4.48047 3.59375,-6.48047 7.6289,-6.51953 v -0.55469 c 0,-2.40625 -0.58984,-4.07421 -2.85547,-4.07421 -1.10937,0 -2.10937,0.37109 -2.96093,0.92578 l -0.62891,-2 c 0.74219,-0.55469 2.41016,-1.1836 4.1875,-1.1836 3.58984,0 5.14844,2.3711 5.14844,6.40625 v 7.74219 c 0,1.36719 0,2.92578 0.18359,4.07422 h -2.59375"
       style="fill:#ffffff;fill-opacity:1;fill-rule:nonzero;stroke:none"
       inkscape:connector-curvature="0" />
    <path
       id="path116"
       d="m 396.44922,148.8125 c 0,2.48047 -0.14844,4.92578 -0.73828,7.10937 -0.33203,1.29688 -0.81641,2.51954 -1.44532,3.63282 h 5.96485 v -13.3711 h -3.78125 z m 6.59375,-4.92578 v 15.70312 l 1.51953,0.0352 -0.1875,6.96484 h -2.14453 l -0.1836,-4.77734 h -9.26171 l -0.1836,4.77734 h -2.1875 l -0.14844,-6.96484 1.1875,-0.0352 c 0.73829,-1.1875 1.29297,-2.48047 1.66407,-3.8164 0.55859,-2.03516 0.8125,-4.22266 0.8125,-6.62891 v -5.25781 h 9.11328"
       style="fill:#ffffff;fill-opacity:1;fill-rule:nonzero;stroke:none"
       inkscape:connector-curvature="0" />
    <path
       id="path118"
       d="m 415.00391,150.99609 c 0.0742,-3.59375 -1.29297,-5.1875 -2.66407,-5.1875 -1.85547,0 -2.82031,2.74219 -2.92578,5.1875 z m -5.62891,2.10938 c 0.0391,5.48437 2.18359,6.66797 4.25781,6.66797 1.22266,0 2.26172,-0.29297 2.96485,-0.70313 l 0.4414,2.11328 c -1,0.55469 -2.51562,0.85157 -3.92578,0.85157 -4.29687,0 -6.51562,-3.51954 -6.51562,-9 0,-5.81641 2.44531,-9.44532 6.03906,-9.44532 3.66406,0 5.10547,3.85157 5.10547,7.92578 0,0.66797 0,1.14844 -0.0352,1.58985 H 409.375"
       style="fill:#ffffff;fill-opacity:1;fill-rule:nonzero;stroke:none"
       inkscape:connector-curvature="0" />
    <path
       id="path120"
       d="m 421.59375,143.88672 h 3.375 l 2.32812,7.88672 c 0.63282,2.07422 1.07422,3.51953 1.63282,5.70312 H 429 c 0.55859,-2.29297 0.89062,-3.58984 1.51953,-5.70312 l 2.26172,-7.88672 h 3.44141 l 1.22265,17.92578 h -2.69922 l -0.33593,-7.70313 c -0.11329,-2.37109 -0.1836,-4.11328 -0.26172,-7.51953 h -0.10938 c -0.40625,1.85157 -1.03515,4.25782 -1.77734,6.88672 l -2.40625,8.22266 h -2.07422 l -2.33594,-7.96094 c -0.73828,-2.48047 -1.37109,-5.00391 -1.84765,-7.1875 h -0.0781 c -0.0352,2.85156 -0.10937,5.1875 -0.25781,7.70703 l -0.29688,7.55469 h -2.6289 l 1.25781,-17.92578"
       style="fill:#ffffff;fill-opacity:1;fill-rule:nonzero;stroke:none"
       inkscape:connector-curvature="0" />
    <path
       id="path122"
       d="m 443.55469,143.88672 v 6.14844 c 0,3.10937 -0.0352,5.77734 -0.21875,8.58984 h 0.0703 c 0.81641,-2.37109 1.85156,-4.92578 2.63281,-6.96094 l 2.9961,-7.77734 h 3.0039 v 17.92578 h -2.63281 v -5.89063 c 0,-3.88671 0.0781,-6 0.26172,-8.74218 h -0.0742 c -0.66406,2.22265 -1.37109,4.22265 -2.14844,6.1875 -0.59375,1.48047 -2.22265,5.55468 -3.55469,8.44531 h -2.92578 v -17.92578 h 2.58985"
       style="fill:#ffffff;fill-opacity:1;fill-rule:nonzero;stroke:none"
       inkscape:connector-curvature="0" />
    <path
       id="path124"
       d="m 458.70312,143.88672 v 6.14844 c 0,3.10937 -0.0391,5.77734 -0.22265,8.58984 h 0.0742 c 0.8125,-2.37109 1.85156,-4.92578 2.6289,-6.96094 l 3,-7.77734 h 3 v 17.92578 h -2.6289 v -5.89063 c 0,-3.88671 0.0742,-6 0.25781,-8.74218 h -0.0742 c -0.66406,2.22265 -1.36719,4.22265 -2.14453,6.1875 -0.59375,1.48047 -2.22656,5.55468 -3.55859,8.44531 h -2.92579 v -17.92578 h 2.59375"
       style="fill:#ffffff;fill-opacity:1;fill-rule:nonzero;stroke:none"
       inkscape:connector-curvature="0" />
    <path
       id="path126"
       d="m 480.03125,143.88672 v 7.58984 h 5.29687 v -7.58984 h 2.85157 v 17.92578 h -2.85157 v -7.89063 h -5.29687 v 7.89063 h -2.84766 v -17.92578 h 2.84766"
       style="fill:#ffffff;fill-opacity:1;fill-rule:nonzero;stroke:none"
       inkscape:connector-curvature="0" />
    <path
       id="path128"
       d="m 498.95703,152.55078 c -1.48437,0 -4.92578,0.26172 -4.92578,4.14844 0,2.33594 1.18359,3.1875 2.18359,3.1875 1.25782,0 2.33594,-0.92578 2.66797,-2.70313 0.0742,-0.33593 0.0742,-0.70312 0.0742,-1.0039 z m 0.40625,9.26172 -0.1875,-1.89063 h -0.10937 c -0.77735,1.3711 -2.03516,2.1836 -3.55469,2.1836 -2.40625,0 -4.25781,-2.03516 -4.25781,-5.10938 0,-4.48047 3.58984,-6.48047 7.6289,-6.51953 v -0.55469 c 0,-2.40625 -0.59375,-4.07421 -2.85156,-4.07421 -1.11328,0 -2.10938,0.37109 -2.96484,0.92578 l -0.62891,-2 c 0.73828,-0.55469 2.40625,-1.1836 4.18359,-1.1836 3.59375,0 5.14844,2.3711 5.14844,6.40625 v 7.74219 c 0,1.36719 0,2.92578 0.18359,4.07422 h -2.58984"
       style="fill:#ffffff;fill-opacity:1;fill-rule:nonzero;stroke:none"
       inkscape:connector-curvature="0" />
    <g
       id="g132"
       clip-path="url(#clip2)"
       style="clip-rule:nonzero">
      <path
         id="path130"
         d="m 506.99219,143.88672 2.37109,10.29687 c 0.33203,1.40625 0.51953,2.58985 0.74219,3.70313 h 0.0742 c 0.17968,-1 0.48047,-2.3711 0.77734,-3.66797 l 2.10938,-10.33203 h 2.8164 l -2.92578,11.51562 c -1.11328,4.51953 -2.33594,8.85547 -4.44531,11.5586 -1.26172,1.59375 -2.58985,2.44531 -3.22266,2.73828 l -1.03515,-2.44141 c 0.8125,-0.44531 1.70312,-1.22265 2.51562,-2.26172 0.74219,-0.92578 1.33203,-2.14843 1.62891,-3 0.14843,-0.44531 0.1875,-0.6289 0.1875,-0.88672 0,-0.22265 0,-0.44531 -0.0742,-0.66796 l -4.51953,-16.55469 h 3"
         style="fill:#ffffff;fill-opacity:1;fill-rule:nonzero;stroke:none"
         inkscape:connector-curvature="0" />
    </g>
    <path
       id="path134"
       d="m 521.21484,143.88672 v 7.77734 h 0.40235 l 4.70703,-7.77734 h 3.18359 l -5.58984,8.07422 c 2.4414,0.40625 3.66406,2.58984 4.33203,5.07031 0.40625,1.51953 0.88672,3.41016 1.48047,4.78125 h -2.88672 c -0.48438,-1.11328 -0.89063,-2.59375 -1.29688,-4.1875 -0.70312,-2.44141 -1.70703,-3.88672 -4.03515,-3.88672 h -0.29688 v 8.07422 h -2.77734 v -17.92578 h 2.77734"
       style="fill:#ffffff;fill-opacity:1;fill-rule:nonzero;stroke:none"
       inkscape:connector-curvature="0" />
  </g>
</svg>
