<?xml version="1.0" encoding="UTF-8"?>
<!DOCTYPE svg PUBLIC "-//W3C//DTD SVG 1.1//EN" "http://www.w3.org/Graphics/SVG/1.1/DTD/svg11.dtd">
<!-- Creator: CorelDRAW X7 -->
<svg
    xmlns="http://www.w3.org/2000/svg" xml:space="preserve" width="24px" height="24px" version="1.1" style="shape-rendering:geometricPrecision; text-rendering:geometricPrecision; image-rendering:optimizeQuality; fill-rule:evenodd; clip-rule:evenodd"
viewBox="0 0 24 24"
    xmlns:xlink="http://www.w3.org/1999/xlink">
    <defs>
        <style type="text/css">
            <![CDATA[
    .fil0 {fill:none}
    .fil1 {fill:black}
   ]]>
        </style>
    </defs>
    <g id="Layer_x0020_1">
        <metadata id="CorelCorpID_0Corel-Layer"/>
        <rect class="fil0" width="24" height="24"/>
        <g id="_1644141760224">
            <g>
                <path class="fil1" d="M14 10l-12 0 0 2 12 0 0 -2zm0 -4l-12 0 0 2 12 0 0 -2zm-12 10l8 0 0 -2 -8 0 0 2z"/>
            </g>
        </g>
        <path class="fil1" d="M19 18c1,-1 1,-1 1,-2 0,-2 -2,-4 -4,-4 -2,0 -4,2 -4,4 0,2 2,4 4,4 1,0 1,0 2,-1l3 3 1 -1 -3 -3zm-3 0c-1,0 -2,-1 -2,-2 0,-1 1,-2 2,-2 1,0 2,1 2,2 0,1 -1,2 -2,2z"/>
    </g>
</svg>
